<svg id="svg" version="1.1" xmlns="http://www.w3.org/2000/svg" width="400"
     height="400" viewBox="0, 0, 400,400">
    <g id="svgg">
        <path id="path0"
              d="M323.558 34.549 C 322.985 34.848,320.915 36.481,318.958 38.178 C 313.379 43.015,302.322 52.590,296.991 57.200 C 294.319 59.510,289.021 64.100,285.216 67.400 C 281.412 70.700,276.009 75.380,273.211 77.800 C 270.412 80.220,266.250 83.825,263.961 85.811 C 260.031 89.223,254.552 93.961,243.395 103.600 C 240.721 105.910,235.421 110.500,231.616 113.800 C 227.812 117.100,222.409 121.780,219.611 124.200 C 216.813 126.620,212.021 130.769,208.962 133.419 C 205.903 136.070,201.780 139.639,199.800 141.351 C 197.820 143.063,193.151 147.104,189.424 150.332 C 185.697 153.559,180.463 158.090,177.791 160.400 C 175.119 162.710,169.821 167.300,166.016 170.600 C 162.212 173.900,156.809 178.580,154.011 181.000 C 146.562 187.443,137.983 194.871,133.238 198.989 C 130.949 200.975,126.888 204.490,124.214 206.800 C 121.540 209.110,116.235 213.700,112.425 217.000 C 108.616 220.300,103.211 224.980,100.415 227.400 C 97.619 229.820,92.287 234.441,88.566 237.668 C 84.845 240.896,80.180 244.937,78.200 246.649 C 76.220 248.361,72.097 251.930,69.037 254.581 C 61.185 261.384,54.657 267.016,47.972 272.755 C 39.504 280.024,38.678 281.323,40.184 285.012 C 42.336 290.282,46.453 289.563,54.430 282.522 C 55.877 281.245,58.834 278.670,61.001 276.800 C 63.169 274.930,67.223 271.420,70.011 269.000 C 72.799 266.580,78.201 261.900,82.015 258.600 C 85.830 255.300,91.230 250.620,94.015 248.200 C 96.801 245.780,102.201 241.100,106.015 237.800 C 109.830 234.500,115.230 229.820,118.015 227.400 C 120.801 224.980,126.201 220.300,130.015 217.000 C 133.830 213.700,139.230 209.020,142.015 206.600 C 144.801 204.180,150.201 199.500,154.015 196.200 C 157.830 192.900,163.230 188.220,166.015 185.800 C 168.801 183.380,174.201 178.700,178.015 175.400 C 181.830 172.100,187.230 167.420,190.015 165.000 C 192.801 162.580,198.201 157.900,202.015 154.600 C 205.830 151.300,211.230 146.620,214.015 144.200 C 216.801 141.780,222.201 137.100,226.015 133.800 C 229.830 130.500,235.230 125.820,238.015 123.400 C 240.801 120.980,246.201 116.300,250.015 113.000 C 253.830 109.700,259.230 105.020,262.015 102.600 C 264.801 100.180,270.201 95.500,274.015 92.200 C 277.830 88.900,283.230 84.220,286.015 81.800 C 292.909 75.810,302.447 67.553,315.800 56.014 C 329.990 43.752,330.352 43.413,331.069 41.697 C 332.952 37.189,327.834 32.317,323.558 34.549 M53.212 46.045 C 45.813 48.998,46.414 59.202,54.108 61.260 C 58.790 62.512,63.672 58.531,63.664 53.467 C 63.657 48.190,57.965 44.148,53.212 46.045 M332.102 170.400 C 330.536 170.760,331.157 170.268,321.814 178.546 C 317.626 182.256,312.139 187.116,309.620 189.346 C 307.101 191.576,303.942 194.390,302.602 195.600 C 301.261 196.810,298.102 199.619,295.582 201.842 C 293.062 204.065,285.060 211.149,277.800 217.584 C 270.540 224.020,262.539 231.111,260.020 233.343 C 257.501 235.574,254.342 238.390,253.002 239.600 C 251.661 240.810,248.502 243.619,245.982 245.842 C 243.462 248.065,235.460 255.149,228.200 261.584 C 220.940 268.020,212.939 275.111,210.420 277.343 C 207.901 279.574,204.741 282.390,203.399 283.600 C 202.056 284.810,198.807 287.700,196.179 290.023 C 174.357 309.308,162.848 319.667,162.276 320.540 C 160.385 323.426,162.200 327.884,165.643 328.812 C 168.913 329.692,168.764 329.796,184.587 315.600 C 185.936 314.390,189.101 311.576,191.620 309.347 C 205.356 297.194,235.874 270.130,242.369 264.342 C 245.227 261.795,260.952 247.857,283.980 227.457 C 286.499 225.226,289.658 222.410,290.998 221.200 C 292.339 219.990,295.498 217.181,298.018 214.958 C 304.227 209.481,327.976 188.425,333.304 183.674 C 338.949 178.640,339.867 176.883,338.560 173.616 C 337.578 171.161,334.803 169.779,332.102 170.400 M343.054 347.806 C 339.219 348.779,336.904 352.219,337.327 356.316 C 337.971 362.555,345.447 365.463,350.085 361.277 C 356.338 355.635,351.175 345.744,343.054 347.806 "
              stroke="none" fill="#060606" fill-rule="evenodd"></path>
        <path id="path1"
              d="M0.000 200.000 L 0.000 400.000 200.000 400.000 L 400.000 400.000 400.000 200.000 L 400.000 0.000 200.000 0.000 L 0.000 0.000 0.000 200.000 M329.200 34.358 C 332.173 36.486,332.920 40.814,330.779 43.500 C 330.241 44.175,292.450 77.080,246.800 116.623 C 201.150 156.165,161.813 190.246,159.385 192.359 C 156.956 194.472,151.826 198.922,147.985 202.249 C 144.143 205.576,120.390 226.157,95.200 247.984 C 70.010 269.811,48.860 287.955,48.200 288.305 C 42.468 291.341,36.402 284.368,40.261 279.178 C 40.888 278.336,54.450 266.357,70.400 252.557 C 97.721 228.920,120.318 209.358,195.779 144.021 C 213.170 128.962,240.090 105.662,255.600 92.243 C 271.110 78.823,285.780 66.115,288.200 64.002 C 292.258 60.459,311.716 43.626,319.550 36.881 C 323.948 33.094,326.502 32.426,329.200 34.358 M59.313 45.739 C 61.990 46.860,64.396 50.580,64.396 53.600 C 64.396 61.304,54.224 64.969,49.328 59.029 C 43.663 52.157,51.075 42.290,59.313 45.739 M337.101 170.790 C 341.627 174.136,340.527 178.055,333.241 184.549 C 330.468 187.020,320.910 195.506,312.000 203.408 C 303.090 211.309,289.410 223.443,281.600 230.372 C 258.106 251.217,250.937 257.577,234.000 272.600 C 209.949 293.933,202.086 300.912,186.200 315.021 C 169.264 330.063,169.860 329.600,167.393 329.600 C 163.551 329.600,161.000 327.178,161.000 323.529 C 161.000 320.135,158.152 322.889,200.426 285.406 C 212.654 274.564,239.221 250.997,258.600 233.801 C 264.320 228.725,276.290 218.105,285.200 210.201 C 294.110 202.297,307.585 190.334,315.144 183.615 C 332.490 168.198,333.108 167.838,337.101 170.790 M347.500 347.267 C 352.473 348.519,354.943 354.349,352.541 359.168 C 348.563 367.152,336.732 364.364,336.628 355.418 C 336.560 349.550,341.591 345.779,347.500 347.267 "
              stroke="none" fill="#fbfbfb" fill-rule="evenodd"></path>
        <path id="path2"
              d="M322.160 34.742 C 321.302 35.371,319.790 36.649,318.800 37.584 C 317.263 39.034,317.351 38.992,319.400 37.293 C 320.720 36.198,322.430 34.920,323.200 34.453 C 323.970 33.985,324.402 33.602,324.160 33.601 C 323.918 33.601,323.018 34.114,322.160 34.742 M328.200 34.066 C 328.640 34.308,329.458 34.888,330.019 35.354 C 330.579 35.819,330.446 35.615,329.724 34.900 C 329.002 34.185,328.184 33.605,327.906 33.612 C 327.628 33.619,327.760 33.823,328.200 34.066 M313.577 42.111 C 311.047 44.512,311.532 44.184,315.101 41.080 C 316.037 40.266,316.667 39.605,316.501 39.611 C 316.336 39.617,315.020 40.742,313.577 42.111 M307.600 47.259 L 305.000 49.691 307.502 47.604 C 309.709 45.763,310.712 44.772,310.324 44.813 C 310.256 44.821,309.030 45.921,307.600 47.259 M53.700 45.476 C 54.085 45.576,54.715 45.576,55.100 45.476 C 55.485 45.375,55.170 45.293,54.400 45.293 C 53.630 45.293,53.315 45.375,53.700 45.476 M56.500 45.476 C 56.885 45.576,57.515 45.576,57.900 45.476 C 58.285 45.375,57.970 45.293,57.200 45.293 C 56.430 45.293,56.115 45.375,56.500 45.476 M58.833 45.721 C 58.925 45.788,59.540 46.158,60.200 46.545 L 61.400 47.247 60.456 46.424 C 59.936 45.971,59.321 45.600,59.089 45.600 C 58.857 45.600,58.742 45.654,58.833 45.721 M325.600 48.044 L 323.000 50.474 325.700 48.188 C 328.073 46.179,328.674 45.582,328.300 45.607 C 328.245 45.610,327.030 46.707,325.600 48.044 M49.775 47.700 L 48.600 49.000 49.900 47.825 C 50.615 47.179,51.200 46.594,51.200 46.525 C 51.200 46.216,50.870 46.488,49.775 47.700 M301.985 52.116 C 299.651 54.311,300.229 53.983,303.101 51.482 C 304.037 50.667,304.667 50.007,304.501 50.016 C 304.336 50.024,303.203 50.969,301.985 52.116 M319.690 53.020 C 318.089 54.439,316.919 55.595,317.090 55.589 C 317.260 55.583,318.660 54.420,320.200 53.005 C 323.832 49.667,323.460 49.678,319.690 53.020 M47.452 51.700 C 47.142 52.855,47.180 54.807,47.528 55.685 C 47.678 56.062,47.800 55.117,47.800 53.585 C 47.800 50.480,47.792 50.434,47.452 51.700 M64.109 53.600 C 64.109 54.590,64.187 54.995,64.282 54.500 C 64.378 54.005,64.378 53.195,64.282 52.700 C 64.187 52.205,64.109 52.610,64.109 53.600 M296.975 56.500 L 295.800 57.800 297.100 56.625 C 297.815 55.979,298.400 55.394,298.400 55.325 C 298.400 55.016,298.070 55.288,296.975 56.500 M63.396 56.814 C 63.243 57.295,62.468 58.434,61.674 59.344 C 60.239 60.989,60.238 60.992,61.550 59.800 C 62.893 58.580,64.217 56.484,63.866 56.133 C 63.760 56.027,63.548 56.333,63.396 56.814 M313.600 58.444 L 311.000 60.874 313.700 58.588 C 316.073 56.579,316.674 55.982,316.300 56.007 C 316.245 56.010,315.030 57.107,313.600 58.444 M294.175 58.900 L 293.000 60.200 294.300 59.025 C 295.015 58.379,295.600 57.794,295.600 57.725 C 295.600 57.416,295.270 57.688,294.175 58.900 M48.800 58.525 C 48.800 58.594,49.385 59.179,50.100 59.825 L 51.400 61.000 50.225 59.700 C 49.130 58.488,48.800 58.216,48.800 58.525 M290.000 62.479 C 288.570 63.803,288.030 64.393,288.800 63.791 C 291.090 61.999,292.894 60.360,292.742 60.211 C 292.664 60.134,291.430 61.154,290.000 62.479 M307.690 63.420 C 306.089 64.839,304.919 65.995,305.090 65.989 C 305.260 65.983,306.660 64.820,308.200 63.405 C 311.832 60.067,311.460 60.078,307.690 63.420 M54.707 61.890 C 55.426 61.979,56.506 61.977,57.107 61.886 C 57.708 61.795,57.120 61.722,55.800 61.724 C 54.480 61.726,53.988 61.801,54.707 61.890 M284.975 66.900 L 283.800 68.200 285.100 67.025 C 285.815 66.379,286.400 65.794,286.400 65.725 C 286.400 65.416,286.070 65.688,284.975 66.900 M301.600 68.844 L 299.000 71.274 301.700 68.988 C 304.073 66.979,304.674 66.382,304.300 66.407 C 304.245 66.410,303.030 67.507,301.600 68.844 M282.175 69.300 L 281.000 70.600 282.300 69.425 C 283.015 68.779,283.600 68.194,283.600 68.125 C 283.600 67.816,283.270 68.088,282.175 69.300 M278.000 72.879 C 276.570 74.203,276.030 74.793,276.800 74.191 C 279.090 72.399,280.894 70.760,280.742 70.611 C 280.664 70.534,279.430 71.554,278.000 72.879 M295.690 73.820 C 294.089 75.239,292.919 76.395,293.090 76.389 C 293.260 76.383,294.660 75.220,296.200 73.805 C 299.832 70.467,299.460 70.478,295.690 73.820 M271.977 78.111 C 269.447 80.512,269.932 80.184,273.501 77.080 C 274.437 76.266,275.067 75.605,274.901 75.611 C 274.736 75.617,273.420 76.742,271.977 78.111 M289.600 79.244 L 287.000 81.674 289.700 79.388 C 292.073 77.379,292.674 76.782,292.300 76.807 C 292.245 76.810,291.030 77.907,289.600 79.244 M266.000 83.259 L 263.400 85.691 265.902 83.604 C 268.109 81.763,269.112 80.772,268.724 80.813 C 268.656 80.821,267.430 81.921,266.000 83.259 M283.690 84.220 C 282.089 85.639,280.919 86.795,281.090 86.789 C 281.260 86.783,282.660 85.620,284.200 84.205 C 287.832 80.867,287.460 80.878,283.690 84.220 M259.977 88.511 C 257.447 90.912,257.932 90.584,261.501 87.480 C 262.437 86.666,263.067 86.005,262.901 86.011 C 262.736 86.017,261.420 87.142,259.977 88.511 M277.591 89.635 L 275.000 92.071 277.700 89.787 C 280.106 87.751,280.658 87.200,280.291 87.200 C 280.232 87.200,279.017 88.296,277.591 89.635 M254.000 93.659 L 251.400 96.091 253.902 94.004 C 256.109 92.163,257.112 91.172,256.724 91.213 C 256.656 91.221,255.430 92.321,254.000 93.659 M271.690 94.620 C 270.089 96.039,268.919 97.195,269.090 97.189 C 269.260 97.183,270.660 96.020,272.200 94.605 C 275.832 91.267,275.460 91.278,271.690 94.620 M248.385 98.516 C 246.051 100.711,246.629 100.383,249.501 97.882 C 250.437 97.067,251.067 96.407,250.901 96.416 C 250.736 96.424,249.603 97.369,248.385 98.516 M265.591 100.035 L 263.000 102.471 265.700 100.187 C 268.106 98.151,268.658 97.600,268.291 97.600 C 268.232 97.600,267.017 98.696,265.591 100.035 M242.000 104.059 L 239.400 106.491 241.902 104.404 C 244.109 102.563,245.112 101.572,244.724 101.613 C 244.656 101.621,243.430 102.721,242.000 104.059 M259.690 105.020 C 258.089 106.439,256.919 107.595,257.090 107.589 C 257.260 107.583,258.660 106.420,260.200 105.005 C 263.832 101.667,263.460 101.678,259.690 105.020 M236.385 108.916 C 234.051 111.111,234.629 110.783,237.501 108.282 C 238.437 107.467,239.067 106.807,238.901 106.816 C 238.736 106.824,237.603 107.769,236.385 108.916 M253.591 110.435 L 251.000 112.871 253.700 110.587 C 256.106 108.551,256.658 108.000,256.291 108.000 C 256.232 108.000,255.017 109.096,253.591 110.435 M231.375 113.300 L 230.200 114.600 231.500 113.425 C 232.215 112.779,232.800 112.194,232.800 112.125 C 232.800 111.816,232.470 112.088,231.375 113.300 M247.690 115.420 C 246.089 116.839,244.919 117.995,245.090 117.989 C 245.260 117.983,246.660 116.820,248.200 115.405 C 251.832 112.067,251.460 112.078,247.690 115.420 M228.575 115.700 L 227.400 117.000 228.700 115.825 C 229.415 115.179,230.000 114.594,230.000 114.525 C 230.000 114.216,229.670 114.488,228.575 115.700 M224.400 119.279 C 222.970 120.603,222.430 121.193,223.200 120.591 C 225.490 118.799,227.294 117.160,227.142 117.011 C 227.064 116.934,225.830 117.954,224.400 119.279 M243.000 119.469 C 242.340 120.044,241.196 121.039,240.458 121.681 C 239.720 122.324,239.180 122.912,239.258 122.989 C 239.336 123.066,240.570 122.071,242.000 120.778 C 244.553 118.469,245.353 117.422,243.000 119.469 M219.578 123.500 L 218.200 125.000 219.796 123.600 C 220.673 122.830,221.468 122.155,221.562 122.100 C 221.656 122.045,221.559 122.000,221.345 122.000 C 221.132 122.000,220.337 122.675,219.578 123.500 M235.690 125.820 C 234.089 127.239,232.919 128.395,233.090 128.389 C 233.260 128.383,234.660 127.220,236.200 125.805 C 239.832 122.467,239.460 122.478,235.690 125.820 M216.575 126.100 L 215.400 127.400 216.700 126.225 C 217.415 125.579,218.000 124.994,218.000 124.925 C 218.000 124.616,217.670 124.888,216.575 126.100 M212.400 129.679 C 210.970 131.003,210.430 131.593,211.200 130.991 C 213.490 129.199,215.294 127.560,215.142 127.411 C 215.064 127.334,213.830 128.354,212.400 129.679 M231.000 129.869 C 230.340 130.444,229.196 131.439,228.458 132.081 C 227.720 132.724,227.180 133.312,227.258 133.389 C 227.336 133.466,228.570 132.471,230.000 131.178 C 232.553 128.869,233.353 127.822,231.000 129.869 M206.377 134.911 C 203.847 137.312,204.332 136.984,207.901 133.880 C 208.837 133.066,209.467 132.405,209.301 132.411 C 209.136 132.417,207.820 133.542,206.377 134.911 M223.690 136.220 C 222.089 137.639,220.919 138.795,221.090 138.789 C 221.260 138.783,222.660 137.620,224.200 136.205 C 227.832 132.867,227.460 132.878,223.690 136.220 M200.400 140.059 L 197.800 142.491 200.302 140.404 C 202.509 138.563,203.512 137.572,203.124 137.613 C 203.056 137.621,201.830 138.721,200.400 140.059 M219.000 140.269 C 218.340 140.844,217.196 141.839,216.458 142.481 C 215.720 143.124,215.180 143.712,215.258 143.789 C 215.336 143.866,216.570 142.871,218.000 141.578 C 220.553 139.269,221.353 138.222,219.000 140.269 M194.377 145.311 C 191.847 147.712,192.332 147.384,195.901 144.280 C 196.837 143.466,197.467 142.805,197.301 142.811 C 197.136 142.817,195.820 143.942,194.377 145.311 M211.690 146.620 C 210.089 148.039,208.919 149.195,209.090 149.189 C 209.260 149.183,210.660 148.020,212.200 146.605 C 215.832 143.267,215.460 143.278,211.690 146.620 M188.400 150.459 L 185.800 152.891 188.302 150.804 C 190.509 148.963,191.512 147.972,191.124 148.013 C 191.056 148.021,189.830 149.121,188.400 150.459 M207.000 150.669 C 206.340 151.244,205.196 152.239,204.458 152.881 C 203.720 153.524,203.180 154.112,203.258 154.189 C 203.336 154.266,204.570 153.271,206.000 151.978 C 208.553 149.669,209.353 148.622,207.000 150.669 M182.785 155.316 C 180.451 157.511,181.029 157.183,183.901 154.682 C 184.837 153.867,185.467 153.207,185.301 153.216 C 185.136 153.224,184.003 154.169,182.785 155.316 M201.375 155.700 L 200.200 157.000 201.500 155.825 C 202.215 155.179,202.800 154.594,202.800 154.525 C 202.800 154.216,202.470 154.488,201.375 155.700 M198.306 158.211 C 197.484 158.975,196.954 159.600,197.127 159.600 C 197.301 159.600,198.054 158.970,198.800 158.200 C 200.541 156.403,200.243 156.410,198.306 158.211 M177.775 159.700 L 176.600 161.000 177.900 159.825 C 179.112 158.730,179.384 158.400,179.075 158.400 C 179.006 158.400,178.421 158.985,177.775 159.700 M195.000 161.069 C 194.340 161.644,193.196 162.639,192.458 163.281 C 191.720 163.924,191.180 164.512,191.258 164.589 C 191.336 164.666,192.570 163.671,194.000 162.378 C 196.553 160.069,197.353 159.022,195.000 161.069 M174.975 162.100 L 173.800 163.400 175.100 162.225 C 175.815 161.579,176.400 160.994,176.400 160.925 C 176.400 160.616,176.070 160.888,174.975 162.100 M170.785 165.716 C 168.451 167.911,169.029 167.583,171.901 165.082 C 172.837 164.267,173.467 163.607,173.301 163.616 C 173.136 163.624,172.003 164.569,170.785 165.716 M189.375 166.100 L 188.200 167.400 189.500 166.225 C 190.712 165.130,190.984 164.800,190.675 164.800 C 190.606 164.800,190.021 165.385,189.375 166.100 M186.306 168.611 C 185.484 169.375,184.954 170.000,185.127 170.000 C 185.301 170.000,186.054 169.370,186.800 168.600 C 188.541 166.803,188.243 166.810,186.306 168.611 M165.775 170.100 L 164.600 171.400 165.900 170.225 C 166.615 169.579,167.200 168.994,167.200 168.925 C 167.200 168.616,166.870 168.888,165.775 170.100 M334.400 169.689 C 334.510 169.792,335.230 170.182,336.000 170.556 C 337.016 171.048,337.235 171.077,336.800 170.660 C 336.470 170.344,335.750 169.954,335.200 169.793 C 334.650 169.632,334.290 169.585,334.400 169.689 M183.000 171.469 C 182.340 172.044,181.196 173.039,180.458 173.681 C 179.720 174.324,179.180 174.912,179.258 174.989 C 179.336 175.066,180.570 174.071,182.000 172.778 C 184.553 170.469,185.353 169.422,183.000 171.469 M162.975 172.500 L 161.800 173.800 163.100 172.625 C 164.312 171.530,164.584 171.200,164.275 171.200 C 164.206 171.200,163.621 171.785,162.975 172.500 M327.775 172.500 L 326.600 173.800 327.900 172.625 C 328.615 171.979,329.200 171.394,329.200 171.325 C 329.200 171.016,328.870 171.288,327.775 172.500 M158.800 176.079 C 157.370 177.403,156.830 177.993,157.600 177.391 C 159.890 175.599,161.694 173.960,161.542 173.811 C 161.464 173.734,160.230 174.754,158.800 176.079 M322.782 176.916 C 319.716 179.846,320.498 179.309,324.283 175.884 C 325.428 174.848,326.238 174.007,326.083 174.016 C 325.927 174.025,324.442 175.330,322.782 176.916 M339.314 175.800 C 339.317 176.900,339.395 177.303,339.487 176.695 C 339.579 176.086,339.577 175.186,339.482 174.695 C 339.387 174.203,339.311 174.700,339.314 175.800 M177.375 176.500 L 176.200 177.800 177.500 176.625 C 178.712 175.530,178.984 175.200,178.675 175.200 C 178.606 175.200,178.021 175.785,177.375 176.500 M174.306 179.011 C 173.484 179.775,172.954 180.400,173.127 180.400 C 173.301 180.400,174.054 179.770,174.800 179.000 C 176.541 177.203,176.243 177.210,174.306 179.011 M152.777 181.311 C 150.247 183.712,150.732 183.384,154.301 180.280 C 155.237 179.466,155.867 178.805,155.701 178.811 C 155.536 178.817,154.220 179.942,152.777 181.311 M334.696 182.817 C 332.769 184.568,331.329 185.996,331.496 185.991 C 331.830 185.981,338.723 179.635,338.400 179.634 C 338.290 179.634,336.623 181.066,334.696 182.817 M315.576 183.312 C 312.497 186.252,313.310 185.698,317.083 182.284 C 318.228 181.248,319.038 180.405,318.883 180.412 C 318.727 180.418,317.239 181.723,315.576 183.312 M171.000 181.869 C 170.340 182.444,169.196 183.439,168.458 184.081 C 167.720 184.724,167.180 185.312,167.258 185.389 C 167.336 185.466,168.570 184.471,170.000 183.178 C 172.553 180.869,173.353 179.822,171.000 181.869 M146.800 186.479 C 145.370 187.803,144.830 188.393,145.600 187.791 C 147.890 185.999,149.694 184.360,149.542 184.211 C 149.464 184.134,148.230 185.154,146.800 186.479 M165.375 186.900 L 164.200 188.200 165.500 187.025 C 166.712 185.930,166.984 185.600,166.675 185.600 C 166.606 185.600,166.021 186.185,165.375 186.900 M327.290 189.414 C 325.469 191.056,324.119 192.393,324.290 192.384 C 324.629 192.367,331.125 186.422,330.800 186.425 C 330.690 186.426,329.110 187.771,327.290 189.414 M308.376 189.712 C 305.297 192.652,306.110 192.098,309.883 188.684 C 311.028 187.648,311.838 186.805,311.683 186.812 C 311.527 186.818,310.039 188.123,308.376 189.712 M162.575 189.300 L 161.400 190.600 162.700 189.425 C 163.912 188.330,164.184 188.000,163.875 188.000 C 163.806 188.000,163.221 188.585,162.575 189.300 M140.777 191.711 C 138.247 194.112,138.732 193.784,142.301 190.680 C 143.237 189.866,143.867 189.205,143.701 189.211 C 143.536 189.217,142.220 190.342,140.777 191.711 M159.000 192.269 C 158.340 192.844,157.196 193.839,156.458 194.481 C 155.720 195.124,155.180 195.712,155.258 195.789 C 155.336 195.866,156.570 194.871,158.000 193.578 C 160.553 191.269,161.353 190.222,159.000 192.269 M320.090 195.814 C 318.269 197.456,316.919 198.793,317.090 198.784 C 317.429 198.767,323.925 192.822,323.600 192.825 C 323.490 192.826,321.910 194.171,320.090 195.814 M302.778 194.700 L 301.400 196.200 302.996 194.800 C 303.873 194.030,304.668 193.355,304.762 193.300 C 304.856 193.245,304.759 193.200,304.545 193.200 C 304.332 193.200,303.537 193.875,302.778 194.700 M134.800 196.859 L 132.200 199.291 134.702 197.204 C 136.909 195.363,137.912 194.372,137.524 194.413 C 137.456 194.421,136.230 195.521,134.800 196.859 M153.375 197.300 L 152.200 198.600 153.500 197.425 C 154.215 196.779,154.800 196.194,154.800 196.125 C 154.800 195.816,154.470 196.088,153.375 197.300 M299.381 197.700 L 297.800 199.400 299.500 197.819 C 301.081 196.348,301.384 196.000,301.081 196.000 C 301.016 196.000,300.251 196.765,299.381 197.700 M150.575 199.700 L 149.400 201.000 150.700 199.825 C 151.415 199.179,152.000 198.594,152.000 198.525 C 152.000 198.216,151.670 198.488,150.575 199.700 M295.781 200.900 L 294.200 202.600 295.900 201.019 C 296.835 200.149,297.600 199.384,297.600 199.319 C 297.600 199.016,297.252 199.319,295.781 200.900 M313.200 202.047 L 310.200 204.877 313.300 202.190 C 316.028 199.825,316.679 199.177,316.300 199.208 C 316.245 199.213,314.850 200.490,313.200 202.047 M128.777 202.111 C 126.247 204.512,126.732 204.184,130.301 201.080 C 131.237 200.266,131.867 199.605,131.701 199.611 C 131.536 199.617,130.220 200.742,128.777 202.111 M147.000 202.669 C 146.340 203.244,145.196 204.239,144.458 204.881 C 143.720 205.524,143.180 206.112,143.258 206.189 C 143.336 206.266,144.570 205.271,146.000 203.978 C 148.553 201.669,149.353 200.622,147.000 202.669 M292.575 203.700 L 291.400 205.000 292.700 203.825 C 293.415 203.179,294.000 202.594,294.000 202.525 C 294.000 202.216,293.670 202.488,292.575 203.700 M122.800 207.259 L 120.200 209.691 122.702 207.604 C 124.909 205.763,125.912 204.772,125.524 204.813 C 125.456 204.821,124.230 205.921,122.800 207.259 M287.200 208.460 L 284.200 211.293 287.104 208.802 C 289.679 206.593,290.711 205.571,290.324 205.614 C 290.256 205.621,288.850 206.902,287.200 208.460 M306.000 208.447 L 303.000 211.277 306.100 208.590 C 308.828 206.225,309.479 205.577,309.100 205.608 C 309.045 205.613,307.650 206.890,306.000 208.447 M141.375 207.700 L 140.200 209.000 141.500 207.825 C 142.712 206.730,142.984 206.400,142.675 206.400 C 142.606 206.400,142.021 206.985,141.375 207.700 M138.575 210.100 L 137.400 211.400 138.700 210.225 C 139.912 209.130,140.184 208.800,139.875 208.800 C 139.806 208.800,139.221 209.385,138.575 210.100 M117.185 212.116 C 114.851 214.311,115.429 213.983,118.301 211.482 C 119.237 210.667,119.867 210.007,119.701 210.016 C 119.536 210.024,118.403 210.969,117.185 212.116 M300.981 212.900 L 299.400 214.600 301.100 213.019 C 302.681 211.548,302.984 211.200,302.681 211.200 C 302.616 211.200,301.851 211.965,300.981 212.900 M135.000 213.069 C 134.340 213.644,133.196 214.639,132.458 215.281 C 131.720 215.924,131.180 216.510,131.258 216.583 C 131.336 216.657,132.570 215.659,134.000 214.365 C 136.556 212.053,137.348 211.026,135.000 213.069 M280.000 214.860 L 277.000 217.693 279.904 215.202 C 282.479 212.993,283.511 211.971,283.124 212.014 C 283.056 212.021,281.650 213.302,280.000 214.860 M297.381 216.100 L 295.800 217.800 297.500 216.219 C 298.435 215.349,299.200 214.584,299.200 214.519 C 299.200 214.216,298.852 214.519,297.381 216.100 M112.175 216.500 L 111.000 217.800 112.300 216.625 C 113.512 215.530,113.784 215.200,113.475 215.200 C 113.406 215.200,112.821 215.785,112.175 216.500 M129.375 218.100 L 128.200 219.400 129.500 218.225 C 130.712 217.130,130.984 216.800,130.675 216.800 C 130.606 216.800,130.021 217.385,129.375 218.100 M109.375 218.900 L 108.200 220.200 109.500 219.025 C 110.712 217.930,110.984 217.600,110.675 217.600 C 110.606 217.600,110.021 218.185,109.375 218.900 M293.781 219.300 L 292.200 221.000 293.900 219.419 C 295.481 217.948,295.784 217.600,295.481 217.600 C 295.416 217.600,294.651 218.365,293.781 219.300 M273.182 220.916 C 270.116 223.846,270.898 223.309,274.683 219.884 C 275.828 218.848,276.638 218.007,276.483 218.016 C 276.327 218.025,274.842 219.330,273.182 220.916 M126.575 220.500 L 125.400 221.800 126.700 220.625 C 127.912 219.530,128.184 219.200,127.875 219.200 C 127.806 219.200,127.221 219.785,126.575 220.500 M105.200 222.494 C 103.770 223.820,103.230 224.408,104.000 223.800 C 106.326 221.964,108.092 220.359,107.942 220.217 C 107.864 220.143,106.630 221.168,105.200 222.494 M290.306 222.211 C 289.484 222.975,288.954 223.600,289.127 223.600 C 289.301 223.600,290.054 222.970,290.800 222.200 C 292.541 220.403,292.243 220.410,290.306 222.211 M123.000 223.469 C 122.340 224.044,121.196 225.039,120.458 225.681 C 119.720 226.324,119.180 226.910,119.258 226.983 C 119.336 227.057,120.570 226.059,122.000 224.765 C 124.556 222.453,125.348 221.426,123.000 223.469 M284.890 227.014 C 283.069 228.656,281.719 229.995,281.890 229.988 C 282.231 229.976,288.723 224.033,288.400 224.030 C 288.290 224.028,286.710 225.371,284.890 227.014 M265.982 227.316 C 262.916 230.246,263.698 229.709,267.483 226.284 C 268.628 225.248,269.438 224.407,269.283 224.416 C 269.127 224.425,267.642 225.730,265.982 227.316 M100.175 226.900 L 99.000 228.200 100.300 227.025 C 101.512 225.930,101.784 225.600,101.475 225.600 C 101.406 225.600,100.821 226.185,100.175 226.900 M117.375 228.500 L 116.200 229.800 117.500 228.625 C 118.712 227.530,118.984 227.200,118.675 227.200 C 118.606 227.200,118.021 227.785,117.375 228.500 M97.375 229.300 L 96.200 230.600 97.500 229.425 C 98.215 228.779,98.800 228.194,98.800 228.125 C 98.800 227.816,98.470 228.088,97.375 229.300 M114.575 230.900 L 113.400 232.200 114.700 231.025 C 115.912 229.930,116.184 229.600,115.875 229.600 C 115.806 229.600,115.221 230.185,114.575 230.900 M93.200 232.879 C 91.770 234.203,91.230 234.793,92.000 234.191 C 94.290 232.399,96.094 230.760,95.942 230.611 C 95.864 230.534,94.630 231.554,93.200 232.879 M277.690 233.414 C 275.869 235.056,274.519 236.395,274.690 236.388 C 275.031 236.376,281.523 230.433,281.200 230.430 C 281.090 230.428,279.510 231.771,277.690 233.414 M258.776 233.712 C 255.697 236.652,256.510 236.098,260.283 232.684 C 261.428 231.648,262.238 230.805,262.083 230.812 C 261.927 230.818,260.439 232.123,258.776 233.712 M111.000 233.869 C 110.340 234.444,109.196 235.439,108.458 236.081 C 107.720 236.724,107.180 237.310,107.258 237.383 C 107.336 237.457,108.570 236.459,110.000 235.165 C 112.556 232.853,113.348 231.826,111.000 233.869 M87.177 238.111 C 84.647 240.512,85.132 240.184,88.701 237.080 C 89.637 236.266,90.267 235.605,90.101 235.611 C 89.936 235.617,88.620 236.742,87.177 238.111 M270.490 239.814 C 268.669 241.456,267.319 242.793,267.490 242.784 C 267.829 242.767,274.325 236.822,274.000 236.825 C 273.890 236.826,272.310 238.171,270.490 239.814 M253.178 238.700 L 251.800 240.200 253.396 238.800 C 254.273 238.030,255.068 237.355,255.162 237.300 C 255.256 237.245,255.159 237.200,254.945 237.200 C 254.732 237.200,253.937 237.875,253.178 238.700 M105.375 238.900 L 104.200 240.200 105.500 239.025 C 106.712 237.930,106.984 237.600,106.675 237.600 C 106.606 237.600,106.021 238.185,105.375 238.900 M102.575 241.300 L 101.400 242.600 102.700 241.425 C 103.912 240.330,104.184 240.000,103.875 240.000 C 103.806 240.000,103.221 240.585,102.575 241.300 M249.781 241.700 L 248.200 243.400 249.900 241.819 C 251.481 240.348,251.784 240.000,251.481 240.000 C 251.416 240.000,250.651 240.765,249.781 241.700 M81.200 243.257 C 79.145 245.178,79.020 245.353,80.600 244.089 C 82.471 242.593,84.328 240.783,83.962 240.813 C 83.873 240.821,82.630 241.920,81.200 243.257 M97.673 245.411 C 96.283 246.615,95.293 247.593,95.473 247.584 C 95.824 247.568,100.735 243.218,100.400 243.221 C 100.290 243.222,99.063 244.207,97.673 245.411 M246.181 244.900 L 244.600 246.600 246.300 245.019 C 247.881 243.548,248.184 243.200,247.881 243.200 C 247.816 243.200,247.051 243.965,246.181 244.900 M263.600 246.047 L 260.600 248.877 263.700 246.190 C 266.428 243.825,267.079 243.177,266.700 243.208 C 266.645 243.213,265.250 244.490,263.600 246.047 M75.177 248.511 C 72.647 250.912,73.132 250.584,76.701 247.480 C 77.637 246.666,78.267 246.005,78.101 246.011 C 77.936 246.017,76.620 247.142,75.177 248.511 M242.581 248.100 L 241.000 249.800 242.700 248.219 C 244.281 246.748,244.584 246.400,244.281 246.400 C 244.216 246.400,243.451 247.165,242.581 248.100 M93.375 249.300 L 92.200 250.600 93.500 249.425 C 94.712 248.330,94.984 248.000,94.675 248.000 C 94.606 248.000,94.021 248.585,93.375 249.300 M237.600 252.460 L 234.600 255.293 237.504 252.802 C 240.079 250.593,241.111 249.571,240.724 249.614 C 240.656 249.621,239.250 250.902,237.600 252.460 M256.400 252.447 L 253.400 255.277 256.500 252.590 C 259.228 250.225,259.879 249.577,259.500 249.608 C 259.445 249.613,258.050 250.890,256.400 252.447 M90.575 251.700 L 89.400 253.000 90.700 251.825 C 91.912 250.730,92.184 250.400,91.875 250.400 C 91.806 250.400,91.221 250.985,90.575 251.700 M69.200 253.659 L 66.600 256.091 69.102 254.004 C 71.309 252.163,72.312 251.172,71.924 251.213 C 71.856 251.221,70.630 252.321,69.200 253.659 M85.673 255.811 C 84.283 257.015,83.293 257.993,83.473 257.984 C 83.824 257.968,88.735 253.618,88.400 253.621 C 88.290 253.622,87.063 254.607,85.673 255.811 M230.400 258.860 L 227.400 261.693 230.304 259.202 C 232.879 256.993,233.911 255.971,233.524 256.014 C 233.456 256.021,232.050 257.302,230.400 258.860 M250.975 257.300 L 249.800 258.600 251.100 257.425 C 252.312 256.330,252.584 256.000,252.275 256.000 C 252.206 256.000,251.621 256.585,250.975 257.300 M63.585 258.516 C 61.251 260.711,61.829 260.383,64.701 257.882 C 65.637 257.067,66.267 256.407,66.101 256.416 C 65.936 256.424,64.803 257.369,63.585 258.516 M81.375 259.700 L 80.200 261.000 81.500 259.825 C 82.712 258.730,82.984 258.400,82.675 258.400 C 82.606 258.400,82.021 258.985,81.375 259.700 M247.781 260.100 L 246.200 261.800 247.900 260.219 C 248.835 259.349,249.600 258.584,249.600 258.519 C 249.600 258.216,249.252 258.519,247.781 260.100 M78.575 262.100 L 77.400 263.400 78.700 262.225 C 79.912 261.130,80.184 260.800,79.875 260.800 C 79.806 260.800,79.221 261.385,78.575 262.100 M57.200 264.059 L 54.600 266.491 57.102 264.404 C 59.309 262.563,60.312 261.572,59.924 261.613 C 59.856 261.621,58.630 262.721,57.200 264.059 M244.181 263.300 L 242.600 265.000 244.300 263.419 C 245.881 261.948,246.184 261.600,245.881 261.600 C 245.816 261.600,245.051 262.365,244.181 263.300 M223.200 265.260 L 220.200 268.093 223.104 265.602 C 225.679 263.393,226.711 262.371,226.324 262.414 C 226.256 262.421,224.850 263.702,223.200 265.260 M73.673 266.211 C 72.283 267.415,71.293 268.393,71.473 268.384 C 71.824 268.368,76.735 264.018,76.400 264.021 C 76.290 264.022,75.063 265.007,73.673 266.211 M240.706 266.211 C 239.884 266.975,239.354 267.600,239.527 267.600 C 239.701 267.600,240.454 266.970,241.200 266.200 C 242.941 264.403,242.643 264.410,240.706 266.211 M51.585 268.916 C 49.251 271.111,49.829 270.783,52.701 268.282 C 53.637 267.467,54.267 266.807,54.101 266.816 C 53.936 266.824,52.803 267.769,51.585 268.916 M235.290 271.014 C 233.469 272.656,232.119 273.995,232.290 273.988 C 232.631 273.976,239.123 268.033,238.800 268.030 C 238.690 268.028,237.110 269.371,235.290 271.014 M216.382 271.316 C 213.316 274.246,214.098 273.709,217.883 270.284 C 219.028 269.248,219.838 268.407,219.683 268.416 C 219.527 268.425,218.042 269.730,216.382 271.316 M69.375 270.100 L 68.200 271.400 69.500 270.225 C 70.712 269.130,70.984 268.800,70.675 268.800 C 70.606 268.800,70.021 269.385,69.375 270.100 M66.575 272.500 L 65.400 273.800 66.700 272.625 C 67.415 271.979,68.000 271.394,68.000 271.325 C 68.000 271.016,67.670 271.288,66.575 272.500 M46.575 273.300 L 45.400 274.600 46.700 273.425 C 47.912 272.330,48.184 272.000,47.875 272.000 C 47.806 272.000,47.221 272.585,46.575 273.300 M43.775 275.700 L 42.600 277.000 43.900 275.825 C 45.112 274.730,45.384 274.400,45.075 274.400 C 45.006 274.400,44.421 274.985,43.775 275.700 M61.673 276.611 C 60.283 277.815,59.293 278.793,59.473 278.784 C 59.824 278.768,64.735 274.418,64.400 274.421 C 64.290 274.422,63.063 275.407,61.673 276.611 M228.090 277.414 C 226.269 279.056,224.919 280.395,225.090 280.388 C 225.431 280.376,231.923 274.433,231.600 274.430 C 231.490 274.428,229.910 275.771,228.090 277.414 M209.176 277.712 C 206.097 280.652,206.910 280.098,210.683 276.684 C 211.828 275.648,212.638 274.805,212.483 274.812 C 212.327 274.818,210.839 276.123,209.176 277.712 M39.772 279.787 C 39.416 280.330,39.187 280.936,39.262 281.134 C 39.338 281.332,39.692 280.888,40.049 280.147 C 40.814 278.562,40.684 278.394,39.772 279.787 M56.000 281.644 L 53.400 284.074 56.100 281.788 C 58.473 279.779,59.074 279.182,58.700 279.207 C 58.645 279.210,57.430 280.307,56.000 281.644 M220.890 283.814 C 219.069 285.456,217.719 286.793,217.890 286.784 C 218.229 286.767,224.725 280.822,224.400 280.825 C 224.290 280.826,222.710 282.171,220.890 283.814 M201.976 284.112 C 198.897 287.052,199.710 286.498,203.483 283.084 C 204.628 282.048,205.438 281.205,205.283 281.212 C 205.127 281.218,203.639 282.523,201.976 284.112 M39.212 284.600 C 39.192 285.782,42.218 288.808,43.400 288.788 C 43.620 288.785,43.148 288.403,42.350 287.941 C 41.553 287.478,40.522 286.447,40.059 285.650 C 39.597 284.852,39.215 284.380,39.212 284.600 M50.400 286.454 L 48.600 288.085 50.294 286.813 C 51.768 285.707,52.714 284.774,52.324 284.812 C 52.256 284.819,51.390 285.558,50.400 286.454 M196.581 288.900 L 195.000 290.600 196.700 289.019 C 198.281 287.548,198.584 287.200,198.281 287.200 C 198.216 287.200,197.451 287.965,196.581 288.900 M214.000 290.047 L 211.000 292.877 214.100 290.190 C 216.828 287.825,217.479 287.177,217.100 287.208 C 217.045 287.213,215.650 288.490,214.000 290.047 M192.981 292.100 L 191.400 293.800 193.100 292.219 C 194.681 290.748,194.984 290.400,194.681 290.400 C 194.616 290.400,193.851 291.165,192.981 292.100 M188.000 296.460 L 185.000 299.293 187.904 296.802 C 190.479 294.593,191.511 293.571,191.124 293.614 C 191.056 293.621,189.650 294.902,188.000 296.460 M206.800 296.447 L 203.800 299.277 206.900 296.590 C 209.628 294.225,210.279 293.577,209.900 293.608 C 209.845 293.613,208.450 294.890,206.800 296.447 M180.800 302.860 L 177.800 305.693 180.704 303.202 C 183.279 300.993,184.311 299.971,183.924 300.014 C 183.856 300.021,182.450 301.302,180.800 302.860 M201.375 301.300 L 200.200 302.600 201.500 301.425 C 202.712 300.330,202.984 300.000,202.675 300.000 C 202.606 300.000,202.021 300.585,201.375 301.300 M198.181 304.100 L 196.600 305.800 198.300 304.219 C 199.881 302.748,200.184 302.400,199.881 302.400 C 199.816 302.400,199.051 303.165,198.181 304.100 M194.581 307.300 L 193.000 309.000 194.700 307.419 C 195.635 306.549,196.400 305.784,196.400 305.719 C 196.400 305.416,196.052 305.719,194.581 307.300 M173.600 309.260 L 170.600 312.093 173.504 309.602 C 176.079 307.393,177.111 306.371,176.724 306.414 C 176.656 306.421,175.250 307.702,173.600 309.260 M190.981 310.500 L 189.400 312.200 191.100 310.619 C 192.681 309.148,192.984 308.800,192.681 308.800 C 192.616 308.800,191.851 309.565,190.981 310.500 M185.690 315.014 C 183.869 316.656,182.519 317.995,182.690 317.988 C 183.031 317.976,189.523 312.033,189.200 312.030 C 189.090 312.028,187.510 313.371,185.690 315.014 M166.782 315.316 C 163.716 318.246,164.498 317.709,168.283 314.284 C 169.428 313.248,170.238 312.407,170.083 312.416 C 169.927 312.425,168.442 313.730,166.782 315.316 M178.490 321.414 C 176.669 323.056,175.319 324.395,175.490 324.388 C 175.831 324.376,182.323 318.433,182.000 318.430 C 181.890 318.428,180.310 319.771,178.490 321.414 M161.056 321.684 C 160.921 322.188,160.831 323.230,160.855 324.000 C 160.889 325.069,160.975 324.880,161.218 323.202 C 161.553 320.892,161.472 320.133,161.056 321.684 M172.400 326.865 C 171.190 327.982,170.740 328.530,171.400 328.084 C 172.529 327.321,175.154 324.780,174.775 324.817 C 174.679 324.827,173.610 325.748,172.400 326.865 M344.305 347.083 C 344.802 347.179,345.522 347.175,345.905 347.075 C 346.287 346.975,345.880 346.896,345.000 346.901 C 344.120 346.905,343.807 346.987,344.305 347.083 M349.211 348.262 C 349.755 348.627,350.570 349.212,351.023 349.562 C 351.476 349.913,351.221 349.615,350.457 348.900 C 349.692 348.185,348.877 347.600,348.644 347.600 C 348.412 347.600,348.667 347.898,349.211 348.262 M353.000 355.400 C 353.000 357.034,353.122 358.062,353.272 357.685 C 353.421 357.308,353.544 356.280,353.544 355.400 C 353.544 354.520,353.421 353.492,353.272 353.115 C 353.122 352.738,353.000 353.766,353.000 355.400 M336.493 355.200 C 336.493 355.970,336.575 356.285,336.676 355.900 C 336.776 355.515,336.776 354.885,336.676 354.500 C 336.575 354.115,336.493 354.430,336.493 355.200 M351.600 360.200 C 351.124 360.970,350.614 361.604,350.467 361.609 C 350.320 361.614,349.750 361.989,349.200 362.444 C 348.650 362.898,348.470 363.134,348.800 362.969 C 350.258 362.239,351.453 361.185,352.123 360.038 C 353.118 358.332,352.668 358.471,351.600 360.200 M344.305 363.883 C 344.802 363.979,345.522 363.975,345.905 363.875 C 346.287 363.775,345.880 363.696,345.000 363.701 C 344.120 363.705,343.807 363.787,344.305 363.883 "
              stroke="none" fill="#9b9b9b" fill-rule="evenodd"></path>
        <path id="path3" d="" stroke="none" fill="#848484" fill-rule="evenodd"></path>
        <path id="path4"
              d="M324.000 33.971 C 323.565 34.266,323.800 34.313,324.857 34.143 C 326.850 33.823,328.978 34.607,330.249 36.129 C 330.934 36.949,331.099 37.050,330.715 36.413 C 329.421 34.268,325.609 32.882,324.000 33.971 M319.200 37.659 L 316.600 40.091 319.102 38.004 C 321.309 36.163,322.312 35.172,321.924 35.213 C 321.856 35.221,320.630 36.321,319.200 37.659 M331.646 39.667 C 331.621 40.034,331.496 40.664,331.370 41.067 C 331.152 41.762,331.163 41.763,331.597 41.087 C 331.848 40.696,331.973 40.066,331.873 39.687 C 331.711 39.068,331.688 39.066,331.646 39.667 M314.192 41.912 C 313.527 42.510,312.379 43.502,311.641 44.116 C 310.903 44.730,310.367 45.300,310.450 45.381 C 310.532 45.463,311.770 44.471,313.200 43.178 C 314.630 41.885,315.710 40.826,315.600 40.825 C 315.490 40.824,314.856 41.313,314.192 41.912 M330.281 43.039 C 329.886 43.568,329.708 44.000,329.885 44.000 C 330.234 44.000,331.338 42.401,331.128 42.200 C 331.057 42.133,330.677 42.511,330.281 43.039 M326.000 47.244 L 323.400 49.674 326.100 47.388 C 328.473 45.379,329.074 44.782,328.700 44.807 C 328.645 44.810,327.430 45.907,326.000 47.244 M307.200 48.059 L 304.600 50.491 307.102 48.404 C 309.309 46.563,310.312 45.572,309.924 45.613 C 309.856 45.621,308.630 46.721,307.200 48.059 M60.076 46.819 C 60.448 47.036,61.303 47.881,61.976 48.698 C 62.649 49.514,63.200 50.052,63.200 49.892 C 63.200 49.387,60.327 46.399,59.853 46.412 C 59.604 46.419,59.704 46.602,60.076 46.819 M49.720 48.100 C 48.836 49.070,47.990 50.547,48.016 51.074 C 48.025 51.253,48.317 50.860,48.665 50.200 C 49.013 49.540,49.667 48.595,50.118 48.100 C 50.570 47.605,50.849 47.200,50.739 47.200 C 50.629 47.200,50.171 47.605,49.720 48.100 M321.775 50.900 L 320.600 52.200 321.900 51.025 C 322.615 50.379,323.200 49.794,323.200 49.725 C 323.200 49.416,322.870 49.688,321.775 50.900 M300.880 53.420 C 299.494 54.619,298.504 55.596,298.680 55.590 C 298.856 55.585,300.080 54.602,301.400 53.406 C 304.510 50.588,304.143 50.598,300.880 53.420 M318.975 53.300 L 317.800 54.600 319.100 53.425 C 319.815 52.779,320.400 52.194,320.400 52.125 C 320.400 51.816,320.070 52.088,318.975 53.300 M47.693 53.600 C 47.693 54.370,47.775 54.685,47.876 54.300 C 47.976 53.915,47.976 53.285,47.876 52.900 C 47.775 52.515,47.693 52.830,47.693 53.600 M63.654 54.267 C 63.625 54.744,63.496 55.464,63.370 55.867 C 63.152 56.561,63.164 56.562,63.596 55.888 C 63.847 55.497,63.975 54.777,63.881 54.288 C 63.709 53.401,63.709 53.401,63.654 54.267 M314.377 57.311 C 311.847 59.712,312.332 59.384,315.901 56.280 C 316.837 55.466,317.467 54.805,317.301 54.811 C 317.136 54.817,315.820 55.942,314.377 57.311 M296.575 57.300 L 295.400 58.600 296.700 57.425 C 297.415 56.779,298.000 56.194,298.000 56.125 C 298.000 55.816,297.670 56.088,296.575 57.300 M293.775 59.700 L 292.600 61.000 293.900 59.825 C 294.615 59.179,295.200 58.594,295.200 58.525 C 295.200 58.216,294.870 58.488,293.775 59.700 M309.775 61.300 L 308.600 62.600 309.900 61.425 C 310.615 60.779,311.200 60.194,311.200 60.125 C 311.200 59.816,310.870 60.088,309.775 61.300 M289.303 63.425 C 287.710 64.841,286.540 65.998,286.703 65.997 C 286.866 65.995,288.260 64.833,289.800 63.415 C 293.426 60.076,293.063 60.084,289.303 63.425 M306.975 63.700 L 305.800 65.000 307.100 63.825 C 307.815 63.179,308.400 62.594,308.400 62.525 C 308.400 62.216,308.070 62.488,306.975 63.700 M302.373 67.703 C 299.836 70.114,300.345 69.773,303.901 66.680 C 304.837 65.866,305.467 65.202,305.301 65.203 C 305.136 65.205,303.818 66.330,302.373 67.703 M284.575 67.700 L 283.400 69.000 284.700 67.825 C 285.415 67.179,286.000 66.594,286.000 66.525 C 286.000 66.216,285.670 66.488,284.575 67.700 M281.775 70.100 L 280.600 71.400 281.900 70.225 C 282.615 69.579,283.200 68.994,283.200 68.925 C 283.200 68.616,282.870 68.888,281.775 70.100 M297.775 71.700 L 296.600 73.000 297.900 71.825 C 298.615 71.179,299.200 70.594,299.200 70.525 C 299.200 70.216,298.870 70.488,297.775 71.700 M277.290 73.820 C 275.689 75.239,274.519 76.398,274.690 76.397 C 274.860 76.395,276.260 75.233,277.800 73.815 C 281.429 70.473,281.061 70.477,277.290 73.820 M294.975 74.100 L 293.800 75.400 295.100 74.225 C 295.815 73.579,296.400 72.994,296.400 72.925 C 296.400 72.616,296.070 72.888,294.975 74.100 M290.373 78.103 C 287.836 80.514,288.345 80.173,291.901 77.080 C 292.837 76.266,293.467 75.602,293.301 75.603 C 293.136 75.605,291.818 76.730,290.373 78.103 M272.575 78.100 L 271.400 79.400 272.700 78.225 C 273.415 77.579,274.000 76.994,274.000 76.925 C 274.000 76.616,273.670 76.888,272.575 78.100 M269.775 80.500 L 268.600 81.800 269.900 80.625 C 270.615 79.979,271.200 79.394,271.200 79.325 C 271.200 79.016,270.870 79.288,269.775 80.500 M285.775 82.100 L 284.600 83.400 285.900 82.225 C 286.615 81.579,287.200 80.994,287.200 80.925 C 287.200 80.616,286.870 80.888,285.775 82.100 M265.290 84.220 C 263.689 85.639,262.519 86.798,262.690 86.797 C 262.860 86.795,264.260 85.633,265.800 84.215 C 269.429 80.873,269.061 80.877,265.290 84.220 M282.975 84.500 L 281.800 85.800 283.100 84.625 C 283.815 83.979,284.400 83.394,284.400 83.325 C 284.400 83.016,284.070 83.288,282.975 84.500 M278.373 88.503 C 275.836 90.914,276.345 90.573,279.901 87.480 C 280.837 86.666,281.467 86.002,281.301 86.003 C 281.136 86.005,279.818 87.130,278.373 88.503 M260.575 88.500 L 259.400 89.800 260.700 88.625 C 261.415 87.979,262.000 87.394,262.000 87.325 C 262.000 87.016,261.670 87.288,260.575 88.500 M257.775 90.900 L 256.600 92.200 257.900 91.025 C 258.615 90.379,259.200 89.794,259.200 89.725 C 259.200 89.416,258.870 89.688,257.775 90.900 M273.775 92.500 L 272.600 93.800 273.900 92.625 C 274.615 91.979,275.200 91.394,275.200 91.325 C 275.200 91.016,274.870 91.288,273.775 92.500 M253.600 94.459 L 251.000 96.891 253.502 94.804 C 255.709 92.963,256.712 91.972,256.324 92.013 C 256.256 92.021,255.030 93.121,253.600 94.459 M270.975 94.900 L 269.800 96.200 271.100 95.025 C 271.815 94.379,272.400 93.794,272.400 93.725 C 272.400 93.416,272.070 93.688,270.975 94.900 M266.373 98.903 C 263.836 101.314,264.345 100.973,267.901 97.880 C 268.837 97.066,269.467 96.402,269.301 96.403 C 269.136 96.405,267.818 97.530,266.373 98.903 M247.280 99.820 C 245.894 101.019,244.904 101.996,245.080 101.990 C 245.256 101.985,246.480 101.002,247.800 99.806 C 250.910 96.988,250.543 96.998,247.280 99.820 M261.775 102.900 L 260.600 104.200 261.900 103.025 C 262.615 102.379,263.200 101.794,263.200 101.725 C 263.200 101.416,262.870 101.688,261.775 102.900 M242.975 103.700 L 241.800 105.000 243.100 103.825 C 243.815 103.179,244.400 102.594,244.400 102.525 C 244.400 102.216,244.070 102.488,242.975 103.700 M258.975 105.300 L 257.800 106.600 259.100 105.425 C 259.815 104.779,260.400 104.194,260.400 104.125 C 260.400 103.816,260.070 104.088,258.975 105.300 M240.175 106.100 L 239.000 107.400 240.300 106.225 C 241.015 105.579,241.600 104.994,241.600 104.925 C 241.600 104.616,241.270 104.888,240.175 106.100 M254.373 109.303 C 251.836 111.714,252.345 111.373,255.901 108.280 C 256.837 107.466,257.467 106.802,257.301 106.803 C 257.136 106.805,255.818 107.930,254.373 109.303 M235.280 110.220 C 233.894 111.419,232.904 112.396,233.080 112.390 C 233.256 112.385,234.480 111.402,235.800 110.206 C 238.910 107.388,238.543 107.398,235.280 110.220 M249.775 113.300 L 248.600 114.600 249.900 113.425 C 250.615 112.779,251.200 112.194,251.200 112.125 C 251.200 111.816,250.870 112.088,249.775 113.300 M230.975 114.100 L 229.800 115.400 231.100 114.225 C 231.815 113.579,232.400 112.994,232.400 112.925 C 232.400 112.616,232.070 112.888,230.975 114.100 M246.975 115.700 L 245.800 117.000 247.100 115.825 C 247.815 115.179,248.400 114.594,248.400 114.525 C 248.400 114.216,248.070 114.488,246.975 115.700 M228.175 116.500 L 227.000 117.800 228.300 116.625 C 229.015 115.979,229.600 115.394,229.600 115.325 C 229.600 115.016,229.270 115.288,228.175 116.500 M242.373 119.703 C 239.836 122.114,240.345 121.773,243.901 118.680 C 244.837 117.866,245.467 117.202,245.301 117.203 C 245.136 117.205,243.818 118.330,242.373 119.703 M223.690 120.220 C 222.089 121.639,220.919 122.798,221.090 122.797 C 221.260 122.795,222.660 121.633,224.200 120.215 C 227.829 116.873,227.461 116.877,223.690 120.220 M237.775 123.700 L 236.600 125.000 237.900 123.825 C 238.615 123.179,239.200 122.594,239.200 122.525 C 239.200 122.216,238.870 122.488,237.775 123.700 M218.975 124.500 L 217.800 125.800 219.100 124.625 C 219.815 123.979,220.400 123.394,220.400 123.325 C 220.400 123.016,220.070 123.288,218.975 124.500 M234.975 126.100 L 233.800 127.400 235.100 126.225 C 235.815 125.579,236.400 124.994,236.400 124.925 C 236.400 124.616,236.070 124.888,234.975 126.100 M216.175 126.900 L 215.000 128.200 216.300 127.025 C 217.015 126.379,217.600 125.794,217.600 125.725 C 217.600 125.416,217.270 125.688,216.175 126.900 M230.373 130.103 C 227.836 132.514,228.345 132.173,231.901 129.080 C 232.837 128.266,233.467 127.602,233.301 127.603 C 233.136 127.605,231.818 128.730,230.373 130.103 M211.690 130.620 C 210.089 132.039,208.919 133.198,209.090 133.197 C 209.260 133.195,210.660 132.033,212.200 130.615 C 215.829 127.273,215.461 127.277,211.690 130.620 M225.775 134.100 L 224.600 135.400 225.900 134.225 C 226.615 133.579,227.200 132.994,227.200 132.925 C 227.200 132.616,226.870 132.888,225.775 134.100 M206.975 134.900 L 205.800 136.200 207.100 135.025 C 207.815 134.379,208.400 133.794,208.400 133.725 C 208.400 133.416,208.070 133.688,206.975 134.900 M222.975 136.500 L 221.800 137.800 223.100 136.625 C 223.815 135.979,224.400 135.394,224.400 135.325 C 224.400 135.016,224.070 135.288,222.975 136.500 M204.175 137.300 L 203.000 138.600 204.300 137.425 C 205.015 136.779,205.600 136.194,205.600 136.125 C 205.600 135.816,205.270 136.088,204.175 137.300 M218.373 140.503 C 215.836 142.914,216.345 142.573,219.901 139.480 C 220.837 138.666,221.467 138.002,221.301 138.003 C 221.136 138.005,219.818 139.130,218.373 140.503 M200.000 140.859 L 197.400 143.291 199.902 141.204 C 202.109 139.363,203.112 138.372,202.724 138.413 C 202.656 138.421,201.430 139.521,200.000 140.859 M213.775 144.500 L 212.600 145.800 213.900 144.625 C 214.615 143.979,215.200 143.394,215.200 143.325 C 215.200 143.016,214.870 143.288,213.775 144.500 M194.975 145.300 L 193.800 146.600 195.100 145.425 C 195.815 144.779,196.400 144.194,196.400 144.125 C 196.400 143.816,196.070 144.088,194.975 145.300 M210.975 146.900 L 209.800 148.200 211.100 147.025 C 211.815 146.379,212.400 145.794,212.400 145.725 C 212.400 145.416,212.070 145.688,210.975 146.900 M192.175 147.700 L 191.000 149.000 192.300 147.825 C 193.015 147.179,193.600 146.594,193.600 146.525 C 193.600 146.216,193.270 146.488,192.175 147.700 M206.373 150.903 C 203.836 153.314,204.345 152.973,207.901 149.880 C 208.837 149.066,209.467 148.402,209.301 148.403 C 209.136 148.405,207.818 149.530,206.373 150.903 M188.000 151.259 L 185.400 153.691 187.902 151.604 C 190.109 149.763,191.112 148.772,190.724 148.813 C 190.656 148.821,189.430 149.921,188.000 151.259 M201.775 154.900 L 200.600 156.200 201.900 155.025 C 203.112 153.930,203.384 153.600,203.075 153.600 C 203.006 153.600,202.421 154.185,201.775 154.900 M181.680 156.620 C 180.294 157.819,179.304 158.796,179.480 158.790 C 179.656 158.785,180.880 157.802,182.200 156.606 C 185.310 153.788,184.943 153.798,181.680 156.620 M198.975 157.300 L 197.800 158.600 199.100 157.425 C 200.312 156.330,200.584 156.000,200.275 156.000 C 200.206 156.000,199.621 156.585,198.975 157.300 M194.373 161.303 C 191.836 163.714,192.345 163.373,195.901 160.280 C 196.837 159.466,197.467 158.802,197.301 158.803 C 197.136 158.805,195.818 159.930,194.373 161.303 M177.375 160.500 L 176.200 161.800 177.500 160.625 C 178.712 159.530,178.984 159.200,178.675 159.200 C 178.606 159.200,178.021 159.785,177.375 160.500 M174.575 162.900 L 173.400 164.200 174.700 163.025 C 175.415 162.379,176.000 161.794,176.000 161.725 C 176.000 161.416,175.670 161.688,174.575 162.900 M189.775 165.300 L 188.600 166.600 189.900 165.425 C 191.112 164.330,191.384 164.000,191.075 164.000 C 191.006 164.000,190.421 164.585,189.775 165.300 M169.680 167.020 C 168.294 168.219,167.304 169.196,167.480 169.190 C 167.656 169.185,168.880 168.202,170.200 167.006 C 173.310 164.188,172.943 164.198,169.680 167.020 M186.975 167.700 L 185.800 169.000 187.100 167.825 C 187.815 167.179,188.400 166.594,188.400 166.525 C 188.400 166.216,188.070 166.488,186.975 167.700 M182.373 171.703 C 179.836 174.114,180.345 173.773,183.901 170.680 C 184.837 169.866,185.467 169.202,185.301 169.203 C 185.136 169.205,183.818 170.330,182.373 171.703 M165.375 170.900 L 164.200 172.200 165.500 171.025 C 166.215 170.379,166.800 169.794,166.800 169.725 C 166.800 169.416,166.470 169.688,165.375 170.900 M332.400 169.982 C 331.642 170.211,331.881 170.283,333.386 170.278 C 334.731 170.273,335.118 170.172,334.586 169.963 C 333.651 169.598,333.670 169.598,332.400 169.982 M162.575 173.300 L 161.400 174.600 162.700 173.425 C 163.912 172.330,164.184 172.000,163.875 172.000 C 163.806 172.000,163.221 172.585,162.575 173.300 M327.106 173.411 C 326.284 174.175,325.754 174.800,325.927 174.800 C 326.101 174.800,326.854 174.170,327.600 173.400 C 329.341 171.603,329.043 171.610,327.106 173.411 M158.090 177.020 C 156.489 178.439,155.319 179.598,155.490 179.597 C 155.660 179.595,157.060 178.433,158.600 177.015 C 162.229 173.673,161.861 173.677,158.090 177.020 M177.775 175.700 L 176.600 177.000 177.900 175.825 C 179.112 174.730,179.384 174.400,179.075 174.400 C 179.006 174.400,178.421 174.985,177.775 175.700 M321.697 178.220 C 319.880 179.859,318.530 181.195,318.697 181.188 C 319.029 181.176,325.525 175.229,325.200 175.236 C 325.090 175.238,323.514 176.581,321.697 178.220 M174.975 178.100 L 173.800 179.400 175.100 178.225 C 176.312 177.130,176.584 176.800,176.275 176.800 C 176.206 176.800,175.621 177.385,174.975 178.100 M335.200 181.906 L 332.200 184.916 334.923 182.589 C 336.420 181.309,337.822 179.933,338.037 179.531 C 338.578 178.519,338.565 178.530,335.200 181.906 M170.373 182.103 C 167.836 184.514,168.345 184.173,171.901 181.080 C 172.837 180.266,173.467 179.602,173.301 179.603 C 173.136 179.605,171.818 180.730,170.373 182.103 M153.375 181.300 L 152.200 182.600 153.500 181.425 C 154.215 180.779,154.800 180.194,154.800 180.125 C 154.800 179.816,154.470 180.088,153.375 181.300 M314.800 184.460 L 311.800 187.293 314.704 184.802 C 317.279 182.593,318.311 181.571,317.924 181.614 C 317.856 181.621,316.450 182.902,314.800 184.460 M150.575 183.700 L 149.400 185.000 150.700 183.825 C 151.415 183.179,152.000 182.594,152.000 182.525 C 152.000 182.216,151.670 182.488,150.575 183.700 M146.090 187.420 C 144.489 188.839,143.319 189.998,143.490 189.997 C 143.660 189.995,145.060 188.833,146.600 187.415 C 150.229 184.073,149.861 184.077,146.090 187.420 M165.775 186.100 L 164.600 187.400 165.900 186.225 C 166.615 185.579,167.200 184.994,167.200 184.925 C 167.200 184.616,166.870 184.888,165.775 186.100 M328.000 188.447 L 325.000 191.277 328.100 188.590 C 330.828 186.225,331.479 185.577,331.100 185.608 C 331.045 185.613,329.650 186.890,328.000 188.447 M162.975 188.500 L 161.800 189.800 163.100 188.625 C 164.312 187.530,164.584 187.200,164.275 187.200 C 164.206 187.200,163.621 187.785,162.975 188.500 M307.600 190.849 L 304.600 193.683 307.504 191.196 C 310.093 188.980,311.099 187.983,310.724 188.008 C 310.656 188.013,309.250 189.291,307.600 190.849 M158.373 192.503 C 155.836 194.914,156.345 194.573,159.901 191.480 C 160.837 190.666,161.467 190.002,161.301 190.003 C 161.136 190.005,159.818 191.130,158.373 192.503 M141.375 191.700 L 140.200 193.000 141.500 191.825 C 142.712 190.730,142.984 190.400,142.675 190.400 C 142.606 190.400,142.021 190.985,141.375 191.700 M322.778 193.100 L 321.400 194.600 322.996 193.200 C 323.873 192.430,324.668 191.755,324.762 191.700 C 324.856 191.645,324.759 191.600,324.545 191.600 C 324.332 191.600,323.537 192.275,322.778 193.100 M138.575 194.100 L 137.400 195.400 138.700 194.225 C 139.912 193.130,140.184 192.800,139.875 192.800 C 139.806 192.800,139.221 193.385,138.575 194.100 M300.400 197.249 L 297.400 200.083 300.304 197.596 C 302.893 195.380,303.899 194.383,303.524 194.408 C 303.456 194.413,302.050 195.691,300.400 197.249 M319.381 196.100 L 317.800 197.800 319.500 196.219 C 321.081 194.748,321.384 194.400,321.081 194.400 C 321.016 194.400,320.251 195.165,319.381 196.100 M134.400 197.659 L 131.800 200.091 134.302 198.004 C 136.509 196.163,137.512 195.172,137.124 195.213 C 137.056 195.221,135.830 196.321,134.400 197.659 M153.775 196.500 L 152.600 197.800 153.900 196.625 C 155.112 195.530,155.384 195.200,155.075 195.200 C 155.006 195.200,154.421 195.785,153.775 196.500 M150.975 198.900 L 149.800 200.200 151.100 199.025 C 151.815 198.379,152.400 197.794,152.400 197.725 C 152.400 197.416,152.070 197.688,150.975 198.900 M315.578 199.500 L 314.200 201.000 315.796 199.600 C 316.673 198.830,317.468 198.155,317.562 198.100 C 317.656 198.045,317.559 198.000,317.345 198.000 C 317.132 198.000,316.337 198.675,315.578 199.500 M146.374 202.903 C 144.929 204.277,144.389 204.849,145.174 204.176 C 145.958 203.502,147.281 202.377,148.114 201.676 C 148.947 200.974,149.487 200.402,149.314 200.403 C 149.141 200.405,147.818 201.530,146.374 202.903 M128.000 203.244 L 125.400 205.674 128.100 203.388 C 130.473 201.379,131.074 200.782,130.700 200.807 C 130.645 200.810,129.430 201.907,128.000 203.244 M294.791 202.111 C 294.017 202.820,292.693 203.996,291.849 204.725 C 291.006 205.453,290.380 206.112,290.458 206.188 C 290.536 206.265,291.950 205.090,293.600 203.578 C 295.250 202.065,296.510 200.826,296.400 200.825 C 296.290 200.823,295.566 201.402,294.791 202.111 M312.181 202.500 L 310.600 204.200 312.300 202.619 C 313.881 201.148,314.184 200.800,313.881 200.800 C 313.816 200.800,313.051 201.565,312.181 202.500 M308.574 205.707 L 307.000 207.399 308.596 205.999 C 309.473 205.230,310.268 204.555,310.362 204.500 C 310.456 204.445,310.447 204.313,310.341 204.207 C 310.235 204.101,309.440 204.776,308.574 205.707 M122.400 208.059 L 119.800 210.491 122.302 208.404 C 124.509 206.563,125.512 205.572,125.124 205.613 C 125.056 205.621,123.830 206.721,122.400 208.059 M141.775 206.900 L 140.600 208.200 141.900 207.025 C 143.112 205.930,143.384 205.600,143.075 205.600 C 143.006 205.600,142.421 206.185,141.775 206.900 M288.181 208.100 L 286.600 209.800 288.300 208.219 C 289.235 207.349,290.000 206.584,290.000 206.519 C 290.000 206.216,289.652 206.519,288.181 208.100 M304.981 208.900 L 303.400 210.600 305.100 209.019 C 306.035 208.149,306.800 207.384,306.800 207.319 C 306.800 207.016,306.452 207.319,304.981 208.900 M138.975 209.300 L 137.800 210.600 139.100 209.425 C 140.312 208.330,140.584 208.000,140.275 208.000 C 140.206 208.000,139.621 208.585,138.975 209.300 M284.668 211.046 C 283.825 211.829,283.207 212.540,283.294 212.627 C 283.381 212.714,284.152 212.069,285.007 211.193 C 286.934 209.219,286.729 209.130,284.668 211.046 M300.000 213.260 L 297.000 216.093 299.904 213.602 C 302.479 211.393,303.511 210.371,303.124 210.414 C 303.056 210.421,301.650 211.702,300.000 213.260 M134.374 213.303 C 132.929 214.677,132.389 215.249,133.174 214.576 C 133.958 213.902,135.281 212.777,136.114 212.076 C 136.947 211.374,137.487 210.802,137.314 210.803 C 137.141 210.805,135.818 211.930,134.374 213.303 M116.080 213.420 C 114.694 214.619,113.704 215.596,113.880 215.590 C 114.056 215.585,115.280 214.602,116.600 213.406 C 119.710 210.588,119.343 210.598,116.080 213.420 M280.981 214.500 L 279.400 216.200 281.100 214.619 C 282.035 213.749,282.800 212.984,282.800 212.919 C 282.800 212.616,282.452 212.919,280.981 214.500 M111.775 217.300 L 110.600 218.600 111.900 217.425 C 113.112 216.330,113.384 216.000,113.075 216.000 C 113.006 216.000,112.421 216.585,111.775 217.300 M129.775 217.300 L 128.600 218.600 129.900 217.425 C 131.112 216.330,131.384 216.000,131.075 216.000 C 131.006 216.000,130.421 216.585,129.775 217.300 M277.506 217.411 C 276.684 218.175,276.154 218.800,276.327 218.800 C 276.501 218.800,277.254 218.170,278.000 217.400 C 279.741 215.603,279.443 215.610,277.506 217.411 M292.800 219.649 L 289.800 222.483 292.704 219.996 C 295.293 217.780,296.299 216.783,295.924 216.808 C 295.856 216.813,294.450 218.091,292.800 219.649 M108.975 219.700 L 107.800 221.000 109.100 219.825 C 110.312 218.730,110.584 218.400,110.275 218.400 C 110.206 218.400,109.621 218.985,108.975 219.700 M126.975 219.700 L 125.800 221.000 127.100 219.825 C 128.312 218.730,128.584 218.400,128.275 218.400 C 128.206 218.400,127.621 218.985,126.975 219.700 M273.781 220.900 L 272.200 222.600 273.900 221.019 C 275.481 219.548,275.784 219.200,275.481 219.200 C 275.416 219.200,274.651 219.965,273.781 220.900 M104.503 223.425 C 102.910 224.841,101.740 225.998,101.903 225.997 C 102.066 225.995,103.460 224.833,105.000 223.415 C 108.626 220.076,108.263 220.084,104.503 223.425 M122.374 223.703 C 120.929 225.077,120.389 225.649,121.174 224.976 C 121.958 224.302,123.281 223.177,124.114 222.476 C 124.947 221.774,125.487 221.202,125.314 221.203 C 125.141 221.205,123.818 222.330,122.374 223.703 M270.306 223.811 C 269.484 224.575,268.954 225.200,269.127 225.200 C 269.301 225.200,270.054 224.570,270.800 223.800 C 272.541 222.003,272.243 222.010,270.306 223.811 M285.600 226.049 L 282.600 228.883 285.504 226.396 C 288.093 224.180,289.099 223.183,288.724 223.208 C 288.656 223.213,287.250 224.491,285.600 226.049 M265.200 228.460 L 262.200 231.293 265.104 228.802 C 267.679 226.593,268.711 225.571,268.324 225.614 C 268.256 225.621,266.850 226.902,265.200 228.460 M99.775 227.700 L 98.600 229.000 99.900 227.825 C 101.112 226.730,101.384 226.400,101.075 226.400 C 101.006 226.400,100.421 226.985,99.775 227.700 M117.775 227.700 L 116.600 229.000 117.900 227.825 C 119.112 226.730,119.384 226.400,119.075 226.400 C 119.006 226.400,118.421 226.985,117.775 227.700 M96.975 230.100 L 95.800 231.400 97.100 230.225 C 98.312 229.130,98.584 228.800,98.275 228.800 C 98.206 228.800,97.621 229.385,96.975 230.100 M114.975 230.100 L 113.800 231.400 115.100 230.225 C 116.312 229.130,116.584 228.800,116.275 228.800 C 116.206 228.800,115.621 229.385,114.975 230.100 M278.400 232.447 L 275.400 235.277 278.500 232.590 C 281.228 230.225,281.879 229.577,281.500 229.608 C 281.445 229.613,280.050 230.890,278.400 232.447 M92.490 233.820 C 90.889 235.239,89.719 236.398,89.890 236.397 C 90.060 236.395,91.460 235.233,93.000 233.815 C 96.629 230.473,96.261 230.477,92.490 233.820 M110.778 233.710 C 108.618 235.741,109.006 235.499,112.114 232.877 C 112.947 232.175,113.487 231.604,113.314 231.610 C 113.141 231.615,112.000 232.560,110.778 233.710 M258.000 234.849 L 255.000 237.683 257.904 235.196 C 260.493 232.980,261.499 231.983,261.124 232.008 C 261.056 232.013,259.650 233.291,258.000 234.849 M273.178 237.100 L 271.800 238.600 273.396 237.200 C 274.273 236.430,275.068 235.755,275.162 235.700 C 275.256 235.645,275.159 235.600,274.945 235.600 C 274.732 235.600,273.937 236.275,273.178 237.100 M87.775 238.100 L 86.600 239.400 87.900 238.225 C 89.112 237.130,89.384 236.800,89.075 236.800 C 89.006 236.800,88.421 237.385,87.775 238.100 M105.775 238.100 L 104.600 239.400 105.900 238.225 C 107.112 237.130,107.384 236.800,107.075 236.800 C 107.006 236.800,106.421 237.385,105.775 238.100 M250.800 241.249 L 247.800 244.083 250.704 241.596 C 253.293 239.380,254.299 238.383,253.924 238.408 C 253.856 238.413,252.450 239.691,250.800 241.249 M269.781 240.100 L 268.200 241.800 269.900 240.219 C 270.835 239.349,271.600 238.584,271.600 238.519 C 271.600 238.216,271.252 238.519,269.781 240.100 M84.975 240.500 L 83.800 241.800 85.100 240.625 C 86.312 239.530,86.584 239.200,86.275 239.200 C 86.206 239.200,85.621 239.785,84.975 240.500 M102.975 240.500 L 101.800 241.800 103.100 240.625 C 104.312 239.530,104.584 239.200,104.275 239.200 C 104.206 239.200,103.621 239.785,102.975 240.500 M80.490 244.220 C 78.889 245.639,77.719 246.798,77.890 246.797 C 78.060 246.795,79.460 245.633,81.000 244.215 C 84.629 240.873,84.261 240.877,80.490 244.220 M98.778 244.110 C 96.618 246.141,97.006 245.899,100.114 243.277 C 100.947 242.575,101.487 242.004,101.314 242.010 C 101.141 242.015,100.000 242.960,98.778 244.110 M265.978 243.500 L 264.600 245.000 266.196 243.600 C 267.073 242.830,267.868 242.155,267.962 242.100 C 268.056 242.045,267.959 242.000,267.745 242.000 C 267.532 242.000,266.737 242.675,265.978 243.500 M243.600 247.647 L 240.600 250.477 243.700 247.790 C 246.428 245.425,247.079 244.777,246.700 244.808 C 246.645 244.813,245.250 246.090,243.600 247.647 M262.581 246.500 L 261.000 248.200 262.700 246.619 C 264.281 245.148,264.584 244.800,264.281 244.800 C 264.216 244.800,263.451 245.565,262.581 246.500 M75.775 248.500 L 74.600 249.800 75.900 248.625 C 77.112 247.530,77.384 247.200,77.075 247.200 C 77.006 247.200,76.421 247.785,75.775 248.500 M93.775 248.500 L 92.600 249.800 93.900 248.625 C 95.112 247.530,95.384 247.200,95.075 247.200 C 95.006 247.200,94.421 247.785,93.775 248.500 M258.974 249.707 L 257.400 251.399 258.996 249.999 C 259.873 249.230,260.668 248.555,260.762 248.500 C 260.856 248.445,260.847 248.313,260.741 248.207 C 260.635 248.101,259.840 248.776,258.974 249.707 M72.975 250.900 L 71.800 252.200 73.100 251.025 C 73.815 250.379,74.400 249.794,74.400 249.725 C 74.400 249.416,74.070 249.688,72.975 250.900 M90.975 250.900 L 89.800 252.200 91.100 251.025 C 91.815 250.379,92.400 249.794,92.400 249.725 C 92.400 249.416,92.070 249.688,90.975 250.900 M238.581 252.100 L 237.000 253.800 238.700 252.219 C 240.281 250.748,240.584 250.400,240.281 250.400 C 240.216 250.400,239.451 251.165,238.581 252.100 M255.381 252.900 L 253.800 254.600 255.500 253.019 C 257.081 251.548,257.384 251.200,257.081 251.200 C 257.016 251.200,256.251 251.965,255.381 252.900 M68.800 254.459 L 66.200 256.891 68.702 254.804 C 70.909 252.963,71.912 251.972,71.524 252.013 C 71.456 252.021,70.230 253.121,68.800 254.459 M86.778 254.510 C 84.618 256.541,85.006 256.299,88.114 253.677 C 88.947 252.975,89.487 252.404,89.314 252.410 C 89.141 252.415,88.000 253.360,86.778 254.510 M235.068 255.046 C 234.225 255.829,233.607 256.540,233.694 256.627 C 233.781 256.714,234.552 256.069,235.407 255.193 C 237.334 253.219,237.129 253.130,235.068 255.046 M251.774 256.107 L 250.200 257.799 251.796 256.399 C 252.673 255.630,253.468 254.955,253.562 254.900 C 253.656 254.845,253.647 254.713,253.541 254.607 C 253.435 254.501,252.640 255.176,251.774 256.107 M231.381 258.500 L 229.800 260.200 231.500 258.619 C 233.081 257.148,233.384 256.800,233.081 256.800 C 233.016 256.800,232.251 257.565,231.381 258.500 M63.792 258.712 C 63.127 259.310,61.979 260.302,61.241 260.916 C 60.503 261.530,59.967 262.100,60.050 262.181 C 60.132 262.263,61.370 261.271,62.800 259.978 C 64.230 258.685,65.310 257.626,65.200 257.625 C 65.090 257.624,64.456 258.113,63.792 258.712 M81.775 258.900 L 80.600 260.200 81.900 259.025 C 83.112 257.930,83.384 257.600,83.075 257.600 C 83.006 257.600,82.421 258.185,81.775 258.900 M248.575 258.900 L 247.400 260.200 248.700 259.025 C 249.912 257.930,250.184 257.600,249.875 257.600 C 249.806 257.600,249.221 258.185,248.575 258.900 M78.975 261.300 L 77.800 262.600 79.100 261.425 C 80.312 260.330,80.584 260.000,80.275 260.000 C 80.206 260.000,79.621 260.585,78.975 261.300 M227.906 261.411 C 227.084 262.175,226.554 262.800,226.727 262.800 C 226.901 262.800,227.654 262.170,228.400 261.400 C 230.141 259.603,229.843 259.610,227.906 261.411 M243.200 263.649 L 240.200 266.483 243.104 263.996 C 245.693 261.780,246.699 260.783,246.324 260.808 C 246.256 260.813,244.850 262.091,243.200 263.649 M56.800 264.859 L 54.200 267.291 56.702 265.204 C 58.909 263.363,59.912 262.372,59.524 262.413 C 59.456 262.421,58.230 263.521,56.800 264.859 M74.778 264.910 C 72.618 266.941,73.006 266.699,76.114 264.077 C 76.947 263.375,77.487 262.804,77.314 262.810 C 77.141 262.815,76.000 263.760,74.778 264.910 M224.181 264.900 L 222.600 266.600 224.300 265.019 C 225.881 263.548,226.184 263.200,225.881 263.200 C 225.816 263.200,225.051 263.965,224.181 264.900 M220.706 267.811 C 219.884 268.575,219.354 269.200,219.527 269.200 C 219.701 269.200,220.454 268.570,221.200 267.800 C 222.941 266.003,222.643 266.010,220.706 267.811 M236.000 270.049 L 233.000 272.883 235.904 270.396 C 238.493 268.180,239.499 267.183,239.124 267.208 C 239.056 267.213,237.650 268.491,236.000 270.049 M50.480 270.220 C 49.094 271.419,48.104 272.396,48.280 272.390 C 48.456 272.385,49.680 271.402,51.000 270.206 C 54.110 267.388,53.743 267.398,50.480 270.220 M69.775 269.300 L 68.600 270.600 69.900 269.425 C 71.112 268.330,71.384 268.000,71.075 268.000 C 71.006 268.000,70.421 268.585,69.775 269.300 M215.600 272.460 L 212.600 275.293 215.504 272.802 C 218.079 270.593,219.111 269.571,218.724 269.614 C 218.656 269.621,217.250 270.902,215.600 272.460 M66.975 271.700 L 65.800 273.000 67.100 271.825 C 68.312 270.730,68.584 270.400,68.275 270.400 C 68.206 270.400,67.621 270.985,66.975 271.700 M46.175 274.100 L 45.000 275.400 46.300 274.225 C 47.512 273.130,47.784 272.800,47.475 272.800 C 47.406 272.800,46.821 273.385,46.175 274.100 M62.778 275.310 C 60.618 277.341,61.006 277.099,64.114 274.477 C 64.947 273.775,65.487 273.204,65.314 273.210 C 65.141 273.215,64.000 274.160,62.778 275.310 M228.800 276.447 L 225.800 279.277 228.900 276.590 C 231.628 274.225,232.279 273.577,231.900 273.608 C 231.845 273.613,230.450 274.890,228.800 276.447 M43.375 276.500 L 42.200 277.800 43.500 276.625 C 44.712 275.530,44.984 275.200,44.675 275.200 C 44.606 275.200,44.021 275.785,43.375 276.500 M208.400 278.849 L 205.400 281.683 208.304 279.196 C 210.893 276.980,211.899 275.983,211.524 276.008 C 211.456 276.013,210.050 277.291,208.400 278.849 M56.400 280.844 L 53.800 283.274 56.500 280.988 C 58.873 278.979,59.474 278.382,59.100 278.407 C 59.045 278.410,57.830 279.507,56.400 280.844 M221.977 282.512 C 219.074 285.285,219.668 284.859,223.691 281.282 C 224.731 280.357,225.451 279.605,225.291 279.612 C 225.131 279.618,223.640 280.923,221.977 282.512 M39.355 281.836 C 39.080 282.934,39.766 285.808,40.397 286.198 C 40.603 286.325,40.490 285.757,40.147 284.934 C 39.783 284.064,39.611 282.886,39.736 282.119 C 39.990 280.554,39.726 280.358,39.355 281.836 M201.200 285.249 L 198.200 288.083 201.104 285.596 C 203.693 283.380,204.699 282.383,204.324 282.408 C 204.256 282.413,202.850 283.691,201.200 285.249 M51.799 284.712 C 51.138 285.310,49.968 286.293,49.199 286.896 C 48.429 287.498,47.920 287.993,48.067 287.996 C 48.214 287.998,49.542 287.010,51.018 285.800 C 52.494 284.590,53.544 283.605,53.351 283.612 C 53.158 283.618,52.459 284.113,51.799 284.712 M216.378 287.500 L 215.000 289.000 216.596 287.600 C 217.473 286.830,218.268 286.155,218.362 286.100 C 218.456 286.045,218.359 286.000,218.145 286.000 C 217.932 286.000,217.137 286.675,216.378 287.500 M43.474 288.457 C 44.442 288.839,46.487 288.860,47.060 288.494 C 47.313 288.332,46.446 288.193,45.134 288.186 C 43.779 288.177,43.061 288.295,43.474 288.457 M194.000 291.647 L 191.000 294.477 194.100 291.790 C 196.828 289.425,197.479 288.777,197.100 288.808 C 197.045 288.813,195.650 290.090,194.000 291.647 M212.981 290.500 L 211.400 292.200 213.100 290.619 C 214.681 289.148,214.984 288.800,214.681 288.800 C 214.616 288.800,213.851 289.565,212.981 290.500 M209.374 293.707 L 207.800 295.399 209.396 293.999 C 210.273 293.230,211.068 292.555,211.162 292.500 C 211.256 292.445,211.247 292.313,211.141 292.207 C 211.035 292.101,210.240 292.776,209.374 293.707 M188.575 296.500 L 187.400 297.800 188.700 296.625 C 189.912 295.530,190.184 295.200,189.875 295.200 C 189.806 295.200,189.221 295.785,188.575 296.500 M205.781 296.900 L 204.200 298.600 205.900 297.019 C 206.835 296.149,207.600 295.384,207.600 295.319 C 207.600 295.016,207.252 295.319,205.781 296.900 M185.468 299.046 C 184.625 299.829,184.007 300.540,184.094 300.627 C 184.181 300.714,184.952 300.069,185.807 299.193 C 187.734 297.219,187.529 297.130,185.468 299.046 M202.174 300.107 L 200.600 301.799 202.196 300.399 C 203.073 299.630,203.868 298.955,203.962 298.900 C 204.056 298.845,204.047 298.713,203.941 298.607 C 203.835 298.501,203.040 299.176,202.174 300.107 M181.781 302.500 L 180.200 304.200 181.900 302.619 C 183.481 301.148,183.784 300.800,183.481 300.800 C 183.416 300.800,182.651 301.565,181.781 302.500 M198.975 302.900 L 197.800 304.200 199.100 303.025 C 200.312 301.930,200.584 301.600,200.275 301.600 C 200.206 301.600,199.621 302.185,198.975 302.900 M178.268 305.446 C 177.425 306.229,176.807 306.940,176.894 307.027 C 176.981 307.114,177.752 306.469,178.607 305.593 C 180.534 303.619,180.329 303.530,178.268 305.446 M193.600 307.649 L 190.600 310.483 193.504 307.996 C 196.093 305.780,197.099 304.783,196.724 304.808 C 196.656 304.813,195.250 306.091,193.600 307.649 M174.581 308.900 L 173.000 310.600 174.700 309.019 C 176.281 307.548,176.584 307.200,176.281 307.200 C 176.216 307.200,175.451 307.965,174.581 308.900 M171.106 311.811 C 170.284 312.575,169.754 313.200,169.927 313.200 C 170.101 313.200,170.854 312.570,171.600 311.800 C 173.341 310.003,173.043 310.010,171.106 311.811 M186.400 314.049 L 183.400 316.883 186.304 314.396 C 188.893 312.180,189.899 311.183,189.524 311.208 C 189.456 311.213,188.050 312.491,186.400 314.049 M165.291 317.100 C 163.257 319.025,161.595 320.748,161.596 320.928 C 161.598 321.108,162.455 320.363,163.500 319.272 C 164.545 318.182,166.300 316.463,167.400 315.454 C 168.500 314.444,169.308 313.614,169.195 313.609 C 169.082 313.604,167.325 315.175,165.291 317.100 M179.200 320.447 L 176.200 323.277 179.300 320.590 C 182.028 318.225,182.679 317.577,182.300 317.608 C 182.245 317.613,180.850 318.890,179.200 320.447 M161.309 323.600 C 161.309 324.590,161.387 324.995,161.482 324.500 C 161.578 324.005,161.578 323.195,161.482 322.700 C 161.387 322.205,161.309 322.610,161.309 323.600 M172.291 326.423 C 170.802 327.731,169.722 328.797,169.891 328.793 C 170.061 328.790,171.370 327.718,172.800 326.411 C 176.167 323.333,175.803 323.343,172.291 326.423 M161.600 325.963 C 161.600 326.328,164.354 328.999,164.498 328.773 C 164.558 328.678,163.931 327.944,163.104 327.141 C 162.277 326.339,161.600 325.809,161.600 325.963 M166.356 329.345 C 166.803 329.545,167.607 329.529,168.264 329.308 C 169.286 328.964,169.209 328.929,167.491 328.963 C 166.070 328.990,165.780 329.088,166.356 329.345 M342.400 347.606 C 341.978 347.882,342.215 347.923,343.200 347.742 C 344.925 347.425,345.251 347.198,343.967 347.206 C 343.435 347.209,342.730 347.389,342.400 347.606 M345.233 347.343 C 345.325 347.421,346.030 347.601,346.800 347.742 C 347.785 347.923,348.022 347.882,347.600 347.606 C 347.058 347.250,344.837 347.003,345.233 347.343 M339.208 349.792 C 338.241 350.777,337.529 351.632,337.625 351.692 C 337.721 351.751,338.632 350.945,339.648 349.900 C 340.665 348.855,341.378 348.000,341.232 348.000 C 341.086 348.000,340.175 348.806,339.208 349.792 M336.828 355.233 C 336.844 356.205,337.006 357.360,337.190 357.800 C 337.392 358.283,337.438 357.649,337.307 356.200 C 337.045 353.310,336.789 352.793,336.828 355.233 M352.909 355.200 C 352.909 356.190,352.987 356.595,353.082 356.100 C 353.178 355.605,353.178 354.795,353.082 354.300 C 352.987 353.805,352.909 354.210,352.909 355.200 M337.917 359.400 C 338.145 359.840,338.932 360.740,339.666 361.399 L 341.000 362.598 339.601 360.999 C 338.832 360.120,338.045 359.220,337.852 359.000 C 337.660 358.780,337.689 358.960,337.917 359.400 M350.378 361.100 L 349.000 362.600 350.500 361.222 C 351.896 359.938,352.184 359.600,351.878 359.600 C 351.812 359.600,351.137 360.275,350.378 361.100 M344.305 363.483 C 344.802 363.579,345.522 363.575,345.905 363.475 C 346.287 363.375,345.880 363.296,345.000 363.301 C 344.120 363.305,343.807 363.387,344.305 363.483 "
              stroke="none" fill="#7c7c7c" fill-rule="evenodd"></path>
    </g>
</svg>